<?xml version="1.0" encoding="iso-8859-1"?>
<svg version="1.1" id="Layer_2" xmlns="http://www.w3.org/2000/svg" xmlns:xlink="http://www.w3.org/1999/xlink" x="0px" y="0px" viewBox="0 0 500 500" style="enable-background:new 0 0 500 500;" xml:space="preserve">
<g>
	<path id="Blazor" style="fill:#702AF7;" d="M471.881,176.881c-9.728,60.994-40.773,116.557-87.612,156.807
		c-46.839,40.249-106.433,62.574-168.182,63.001c-12.508,0.481-25.032-0.28-37.389-2.27c-53.255-9.05-92.959-54.066-95.294-108.041
		c0.25-29.215,11.975-57.16,32.644-77.805c43.005-42.953,112.515-43.444,156.122-1.103c20.96,20.35,33.078,48.127,33.741,77.335
		c0.467,18.448-7.523,34.629-23.944,35.096c-17.544,0-25.769-12.521-25.769-29.396v-46.889c0.013-15.784-12.71-28.621-28.491-28.747
		h-39.299c-23.227-0.161-44.948,11.48-57.679,30.91c-20.711,31.605-11.884,74.018,19.717,94.733
		c8.116,5.32,17.271,8.852,26.856,10.362c22.944,3.611,46.153-4.669,61.632-21.989l1.374-2.05l1.376,2.275
		c9.6,13.044,25.087,20.421,41.264,19.654c29.525-2.146,51.948-27.454,50.526-57.026c0.138-12.202-1.229-24.375-4.071-36.242
		c-7.288-33.525-26.726-63.165-54.566-83.204c-57.66-41.503-137.345-32.773-184.654,20.229
		c-22.844,25.593-35.408,58.738-35.269,93.046c0.438,36.378,14.958,71.171,40.507,97.067c25.548,25.895,60.138,40.877,96.5,41.798
		c0,0,10.292,0.936,21.894,0.669c56.4-0.357,111.526-16.807,158.9-47.417c0.674-0.469,1.348,0.468,0.9,1.15
		c-46.683,50.298-113.144,77.482-181.689,74.316c-44.738,0.813-87.864-16.699-119.373-48.473
		c-31.512-31.775-48.672-75.05-47.5-119.788c0.022-53.519,25.281-103.892,68.154-135.918c28.416-20.929,62.756-32.268,98.046-32.373
		H244c41.659-0.031,81.385-17.575,109.473-48.345c0.293-0.325,0.684-0.548,1.113-0.636c0.879-0.191,1.782,0.203,2.241,0.978
		c0.226,0.379,0.327,0.819,0.29,1.259c-2.236,23.71-10.128,46.538-23.013,66.565c-0.39,0.711-0.324,1.585,0.17,2.228
		c0.491,0.642,1.313,0.935,2.1,0.748c49.376-11.156,90.523-45.093,110.876-91.447c0.255-0.408,0.606-0.748,1.025-0.988
		c0.855-0.482,1.9-0.482,2.756,0c0.419,0.239,0.771,0.578,1.023,0.988C472.726,87.555,479.698,132.894,471.881,176.881
		L471.881,176.881z M191.789,242.946c-22.657-0.004-41.027,18.446-41.032,41.105c0,2.692,0.264,5.378,0.789,8.018
		c3.237,16.278,15.959,29.003,32.234,32.243c22.222,4.42,43.82-10.014,48.239-32.239c0.525-2.638,0.789-5.322,0.788-8.012v-38.307
		c-0.076-1.518-1.29-2.732-2.807-2.808L191.789,242.946z"/>
</g>
</svg>
